<!-- VIREO — clean geometric bird + wordmark (brand green #29a329) -->
<svg xmlns="http://www.w3.org/2000/svg" viewBox="0 0 820 240">
  <style>
    .line { fill:none; stroke:#29a329; stroke-width:10; stroke-linecap:round; stroke-linejoin:round; }
    .fill { fill:#29a329; }
    .type { fill:#29a329; font-family: 'Montserrat','Helvetica Neue',Arial,sans-serif; font-weight:700; font-size:120px; letter-spacing:2px; }
  </style>

  <!-- Bird mark (left) -->
  <!-- Back + head + beak -->
  <path class="line" d="M90 170 C62 170 44 151 44 125 C44 96 68 76 101 76
                        C120 76 137 82 150 93 L186 82 L202 88 L182 99
                        C191 111 197 126 197 142 C197 168 177 186 146 188
                        C128 189 111 183 98 174" />
  <!-- Wing (leaf geometry) -->
  <path class="line" d="M116 98 C96 116 93 140 120 158 C150 140 155 116 138 104" />
  <!-- Eye -->
  <circle class="fill" cx="138" cy="100" r="6" />
  <!-- Tail (angled) -->
  <path class="line" d="M100 182 L74 216" />
  <path class="line" d="M116 180 L94 216" />
  <!-- Legs + perch -->
  <path class="line" d="M136 186 L136 206" />
  <path class="line" d="M92 206 L168 206" />

  <!-- Wordmark -->
  <text class="type" x="300" y="160">VIREO</text>
</svg>
